<svg height="512" viewBox="0 0 135.46666 135.46667" width="512" xmlns="http://www.w3.org/2000/svg"><g transform="translate(0 -161.53332)"><path d="m112.86463 271.97702-36.135463-41.12287" fill="none" stroke="#FFF" stroke-width="12.7"/><path fill="#FFF" d="m219.8418 50.898438a139.84252 139.84252 0 0 0 -139.8418 139.841792 139.84252 139.84252 0 0 0 139.8418 139.8418 139.84252 139.84252 0 0 0 139.84375-139.8418 139.84252 139.84252 0 0 0 -139.84375-139.841792zm0 43.283203a96.55793 96.55793 0 0 1 96.55859 96.558589 96.55793 96.55793 0 0 1 -96.55859 96.5586 96.55793 96.55793 0 0 1 -96.55664-96.5586 96.55793 96.55793 0 0 1 96.55664-96.558589z" transform="matrix(.26458333 0 0 .26458333 0 161.53332)"/></g></svg>
