<?xml version="1.0" encoding="UTF-8" standalone="no"?>
<svg
   xmlns:dc="http://purl.org/dc/elements/1.1/"
   xmlns:cc="http://creativecommons.org/ns#"
   xmlns:rdf="http://www.w3.org/1999/02/22-rdf-syntax-ns#"
   xmlns:svg="http://www.w3.org/2000/svg"
   xmlns="http://www.w3.org/2000/svg"
   id="SVGRoot"
   version="1.1"
   viewBox="0 0 64 64"
   height="64px"
   width="64px">
  <defs
     id="defs908" />
  <metadata
     id="metadata911">
    <rdf:RDF>
      <cc:Work
         rdf:about="">
        <dc:format>image/svg+xml</dc:format>
        <dc:type
           rdf:resource="http://purl.org/dc/dcmitype/StillImage" />
        <dc:title></dc:title>
      </cc:Work>
    </rdf:RDF>
  </metadata>
  <g
     id="layer1">
    <path
       style="fill:#347300;fill-opacity:1;stroke:#000000;stroke-width:0.27864283;stroke-linecap:butt;stroke-linejoin:miter;stroke-miterlimit:4;stroke-dasharray:none;stroke-opacity:1"
       d="M 63.800575,63.454088 C 44.928551,63.55857 26.545296,63.478668 7.672248,63.595446 0.45347817,63.489325 -2.5482298,57.063898 4.0263958,54.08291 9.5185739,54.248033 14.999745,53.603397 20.489186,53.513665 c 7.330355,0.175366 14.647175,1.088133 21.985948,0.363025 7.451501,-0.10817 16.8604,-0.04958 21.325441,9.577398 z"
       id="path6100-5" />
    <path
       style="fill:#00ac00;fill-opacity:1;stroke:#000000;stroke-width:0.32522741;stroke-linecap:butt;stroke-linejoin:miter;stroke-miterlimit:4;stroke-dasharray:none;stroke-opacity:1"
       d="m 45.973534,30.672584 c -4.75252,0.125379 -9.841186,-0.376546 -14.669139,-0.797672 -7.922887,-4.189215 5.396133,-7.654428 9.41793,-5.350159 4.625789,-2.298738 12.574489,4.301237 5.251209,6.147831 z"
       id="path410-3-6-7-3" />
    <path
       style="fill:#00ac00;fill-opacity:1;stroke:#000000;stroke-width:0.32522741;stroke-linecap:butt;stroke-linejoin:miter;stroke-miterlimit:4;stroke-dasharray:none;stroke-opacity:1"
       d="M 47.91699,19.167177 C 42.419203,20.388065 36.762931,20.678568 31.146401,20.615469 22.586458,19.628785 13.382698,18.556672 5.6973343,14.624811 1.4077339,8.0131592 11.62481,2.661607 16.963989,1.2029495 26.191718,0.46132865 35.706961,0.79280447 44.600961,3.6495197 c 6.722158,0.1110382 14.088624,5.6930666 10.981725,13.0537143 -2.555232,0.821315 -5.110464,1.642629 -7.665696,2.463943 z"
       id="path410-5" />
    <path
       style="fill:#003a00;fill-opacity:1;stroke:#000000;stroke-width:0.32522741;stroke-linecap:butt;stroke-linejoin:miter;stroke-miterlimit:4;stroke-dasharray:none;stroke-opacity:1"
       d="m 37.513566,30.118172 h -8.61e-4 c 3.979431,-0.07089 5.153159,-4.649348 6.141932,-7.890928 5.088707,-9.333359 1.768786,5.042858 -0.276571,8.739448 -3.998197,5.46464 -0.632263,8.120216 4.591288,3.638368 5.268253,8.248052 -10.609562,6.997581 -7.887732,14.213757 0.452061,3.147504 6.700442,15.215723 -0.02049,9.628041 -4.031263,-6.713758 0.347988,3.021674 -3.449807,2.984798 -2.291814,-3.096492 -6.620709,-8.499794 -3.421945,-1.652749 -2.545154,5.898918 -4.515735,-2.021675 -5.346105,-4.349053 -1.082111,1.358928 0.06712,9.944111 -3.794927,3.859542 0.988118,-9.597843 -7.247807,5.975457 -10.496434,0.548964 7.223469,-3.864746 9.685281,-12.581905 9.289067,-20.285993 2.152627,-5.738097 -13.1919999,-8.844709 -7.078135,-12.008931 7.589567,4.922396 2.258256,-5.066048 0.0082,-7.774521 1.8813,-5.365484 9.757723,1.074571 9.199581,6.007497 3.611202,5.911783 1.702819,-1.277923 0.893387,-3.798942 -1.671966,-7.629599 5.716135,-0.737688 4.270097,3.433335 0.379497,8.187002 1.775958,-0.06843 1.704255,-3.974186 -1.049334,-5.313775 4.608169,-1.691592 7.454723,-1.790338 z"
       id="path412-6" />
    <path
       style="fill:#00ac00;fill-opacity:1;stroke:#000000;stroke-width:0.32522741;stroke-linecap:butt;stroke-linejoin:miter;stroke-miterlimit:4;stroke-dasharray:none;stroke-opacity:1"
       d="M 19.82476,28.855654 C 15.072241,28.981033 9.9835749,28.479108 5.1556233,28.057982 -2.7672635,23.868767 10.551755,20.403553 14.573552,22.707823 19.19934,20.409085 27.14804,27.00906 19.82476,28.855654 Z"
       id="path410-3-2" />
    <path
       style="fill:#00ac00;fill-opacity:1;stroke:#000000;stroke-width:0.32522741;stroke-linecap:butt;stroke-linejoin:miter;stroke-miterlimit:4;stroke-dasharray:none;stroke-opacity:1"
       d="m 53.889414,37.23642 c -4.752519,0.125379 -9.841185,-0.376546 -14.669137,-0.797672 -7.922889,-4.189215 5.396131,-7.654429 9.417929,-5.350159 4.625788,-2.298738 12.574488,4.301236 5.251208,6.147831 z"
       id="path410-3-6-9" />
  </g>
</svg>
